<?xml version="1.0" encoding="UTF-8"?>
<!DOCTYPE svg PUBLIC "-//W3C//DTD SVG 1.1//EN" "http://www.w3.org/Graphics/SVG/1.1/DTD/svg11.dtd">
<!-- Creator: CorelDRAW 2021 (64 Bit) -->
<svg xmlns="http://www.w3.org/2000/svg" xml:space="preserve" width="16px" height="10px" version="1.1" style="shape-rendering:geometricPrecision; text-rendering:geometricPrecision; image-rendering:optimizeQuality; fill-rule:evenodd; clip-rule:evenodd"
viewBox="0 0 0.31 0.19"
 xmlns:xlink="http://www.w3.org/1999/xlink"
 xmlns:xodm="http://www.corel.com/coreldraw/odm/2003">
 <defs>
  <style type="text/css">
   <![CDATA[
    .fil0 {fill:#8BC34A;fill-rule:nonzero}
   ]]>
  </style>
 </defs>
 <g id="Camada_x0020_1">
  <metadata id="CorelCorpID_0Corel-Layer"/>
  <g id="_1860799759360">
   <path class="fil0" d="M0.24 0.12c0,0 0,0 0,0 -0.01,0 -0.01,-0.01 -0.01,-0.02 0.01,-0.01 0.01,-0.02 0.01,-0.03 0,-0.01 0,-0.02 -0.01,-0.03 0,0 0,-0.01 0,-0.02 0.01,0 0.02,0 0.02,0.01 0.01,0.01 0.02,0.03 0.02,0.04 0,0.02 -0.01,0.03 -0.02,0.05 0,0 0,0 -0.01,0zm0.05 0.01c0.01,-0.02 0.02,-0.04 0.02,-0.06 0,-0.02 -0.01,-0.04 -0.02,-0.06 0,0 -0.01,0 -0.01,0 -0.01,0 -0.01,0.01 -0.01,0.02 0.01,0.01 0.02,0.03 0.02,0.04 0,0.02 -0.01,0.03 -0.02,0.05 0,0 0,0.01 0.01,0.01 0,0 0,0.01 0,0.01 0.01,0 0.01,-0.01 0.01,-0.01z"/>
   <path class="fil0" d="M0.1 0.19c0.01,0 0.01,0 0.01,0 0.02,-0.01 0.04,-0.03 0.05,-0.05 0.04,-0.01 0.07,-0.04 0.07,-0.07 0,-0.04 -0.05,-0.07 -0.12,-0.07 -0.06,0 -0.11,0.03 -0.11,0.07 0,0.03 0.02,0.05 0.05,0.06 0.01,0 0.01,0 0.02,0 0,-0.01 0,-0.01 -0.01,-0.02 -0.02,-0.01 -0.04,-0.02 -0.04,-0.04 0,-0.03 0.04,-0.05 0.09,-0.05 0.05,0 0.1,0.02 0.1,0.05 0,0.02 -0.03,0.04 -0.06,0.05 0,0 -0.01,0 -0.01,0.01 0,0 -0.01,0.02 -0.02,0.03 0,-0.01 0,-0.02 0,-0.03 0,0 0,-0.01 0,-0.01 -0.01,0 -0.01,0.01 -0.01,0.01 -0.01,0.03 -0.01,0.05 -0.02,0.05 0,0 0,0.01 0.01,0.01 0,0 0,0 0,0zm-0.01 -0.05c-0.01,0 -0.01,0 -0.01,0 0,0 -0.01,-0.01 -0.01,-0.01 0,-0.01 0.01,-0.01 0.01,-0.01 0.01,0 0.01,0 0.01,0 0,0 0.01,0.01 0.01,0.01 0,0.01 -0.01,0.01 -0.01,0.01 0,0 0,0 0,0z"/>
  </g>
 </g>
</svg>
